<svg width="73" height="73" viewBox="0 0 73 73" fill="none" xmlns="http://www.w3.org/2000/svg">
<path d="M20.75 34.75C20.75 32.8644 20.75 31.9216 21.3358 31.3358C21.9216 30.75 22.8644 30.75 24.75 30.75H49.25C51.1356 30.75 52.0784 30.75 52.6642 31.3358C53.25 31.9216 53.25 32.8644 53.25 34.75V55.25C53.25 59.0212 53.25 60.9069 52.0784 62.0784C50.9069 63.25 49.0212 63.25 45.25 63.25H28.75C24.9788 63.25 23.0931 63.25 21.9216 62.0784C20.75 60.9069 20.75 59.0212 20.75 55.25V34.75Z" stroke="#5B1400" stroke-width="4"/>
<path d="M27.25 18.5C27.25 16.6144 27.25 15.6716 27.8358 15.0858C28.4216 14.5 29.3644 14.5 31.25 14.5H42.75C44.6356 14.5 45.5784 14.5 46.1642 15.0858C46.75 15.6716 46.75 16.6144 46.75 18.5V30.75H27.25V18.5Z" stroke="#5B1400" stroke-width="4"/>
<path d="M37 30.75V43.75" stroke="#5B1400" stroke-width="4"/>
<path d="M46.75 4.75L40.25 14.5" stroke="#5B1400" stroke-width="4"/>
<path d="M27.25 4.75L33.75 14.5" stroke="#5B1400" stroke-width="4"/>
<path d="M20.75 47H4.5" stroke="#5B1400" stroke-width="4"/>
<path d="M69.5 47H53.25" stroke="#5B1400" stroke-width="4"/>
<path d="M63 24.25V31.25C63 34.0784 63 35.4926 62.1213 36.3713C61.2426 37.25 59.8284 37.25 57 37.25H53.25" stroke="#5B1400" stroke-width="4"/>
<path d="M63 66.5V62.75C63 59.9216 63 58.5074 62.1213 57.6287C61.2426 56.75 59.8284 56.75 57 56.75H53.25" stroke="#5B1400" stroke-width="4"/>
<path d="M11 24.25V31.25C11 34.0784 11 35.4926 11.8787 36.3713C12.7574 37.25 14.1716 37.25 17 37.25H20.75" stroke="#5B1400" stroke-width="4"/>
<path d="M11 66.5V62.75C11 59.9216 11 58.5074 11.8787 57.6287C12.7574 56.75 14.1716 56.75 17 56.75H20.75" stroke="#5B1400" stroke-width="4"/>
</svg>
