<svg width="73" height="73" viewBox="0 0 73 73" fill="none" xmlns="http://www.w3.org/2000/svg">
<path d="M47.3333 9V32.7592C47.3333 32.957 47.392 33.1503 47.5018 33.3147L66.9609 62.4445C67.4048 63.109 66.9285 64 66.1294 64H7.87061C7.07149 64 6.59519 63.109 7.03908 62.4445L26.4982 33.3147C26.608 33.1503 26.6667 32.957 26.6667 32.7592V9" stroke="#5B1400" stroke-width="4" stroke-linejoin="round"/>
<path d="M55.3529 56.1883L45.9366 44.3766C45.7469 44.1386 45.4591 44 45.1547 44H28.8453C28.5409 44 28.2531 44.1386 28.0634 44.3766L18.6471 56.1883C18.386 56.5158 18.6192 57 19.038 57H54.962C55.3808 57 55.614 56.5158 55.3529 56.1883Z" fill="#5B1400"/>
<path d="M19 9H55" stroke="#5B1400" stroke-width="4" stroke-linecap="round" stroke-linejoin="round"/>
</svg>
