<svg width="73" height="73" viewBox="0 0 73 73" fill="none" xmlns="http://www.w3.org/2000/svg">
<path d="M36.75 66.3333V18C36.75 15.1716 36.75 13.7574 35.8713 12.8787C34.9926 12 33.5784 12 30.75 12H8.1875C7.24469 12 6.77329 12 6.48039 12.2929C6.1875 12.5858 6.1875 13.0572 6.1875 14V54.1458C6.1875 55.0886 6.1875 55.56 6.48039 55.8529C6.77329 56.1458 7.24469 56.1458 8.1875 56.1458H30.75C33.5784 56.1458 34.9926 56.1458 35.8713 57.0245C36.75 57.9032 36.75 59.3174 36.75 62.1458V66.3333Z" stroke="#5B1400" stroke-width="4"/>
<path d="M36.75 66.3333V18C36.75 15.1716 36.75 13.7574 37.6287 12.8787C38.5074 12 39.9216 12 42.75 12H65.3125C66.2553 12 66.7267 12 67.0196 12.2929C67.3125 12.5858 67.3125 13.0572 67.3125 14V54.1458C67.3125 55.0886 67.3125 55.56 67.0196 55.8529C66.7267 56.1458 66.2553 56.1458 65.3125 56.1458H42.75C39.9216 56.1458 38.5074 56.1458 37.6287 57.0245C36.75 57.9032 36.75 59.3174 36.75 62.1458V66.3333Z" stroke="#5B1400" stroke-width="4"/>
</svg>
