<svg width="73" height="73" viewBox="0 0 73 73" fill="none" xmlns="http://www.w3.org/2000/svg">
<path d="M68 53.6972V12.6687C68 12.3492 67.6765 12.1315 67.3806 12.2518L50.9147 18.9443C50.8258 18.9805 50.7276 18.9872 50.6345 18.9636L23.3655 12.0364C23.2724 12.0128 23.1742 12.0195 23.0853 12.0557L6.28056 18.886C6.11094 18.9549 6 19.1198 6 19.3028V60.3313C6 60.6508 6.32352 60.8685 6.61944 60.7482L23.0853 54.0557C23.1742 54.0195 23.2724 54.0128 23.3655 54.0364L50.6345 60.9636C50.7276 60.9872 50.8258 60.9805 50.9147 60.9443L67.7194 54.114C67.8891 54.0451 68 53.8802 68 53.6972Z" stroke="#5B1400" stroke-width="4" stroke-linejoin="round"/>
<path d="M51 61V19" stroke="#5B1400" stroke-width="4"/>
<path d="M23 54L23 12" stroke="#5B1400" stroke-width="4"/>
</svg>
