<svg width="73" height="73" viewBox="0 0 73 73" fill="none" xmlns="http://www.w3.org/2000/svg">
<path d="M34.5 21.0382L28.7513 18.2059C28.4763 18.0705 28.1739 18 27.8674 18H22.9865C22.4611 18 21.9569 18.2067 21.5827 18.5754L16.5963 23.4888C16.2148 23.8647 16 24.3779 16 24.9134L16 44.2644C16 44.9379 16.339 45.5662 16.9019 45.936L33.27 56.6882C34.0017 57.1688 34.9608 57.1178 35.6373 56.5623L53 42.3053" stroke="#5B1400" stroke-width="4"/>
<path fill-rule="evenodd" clip-rule="evenodd" d="M41.8233 33.0854C41.2202 32.2867 40.1196 32.0568 39.2472 32.5472L28.554 38.5582C27.7759 38.9956 26.8022 38.8644 26.1676 38.2367L22.6617 34.7692C21.8194 33.9361 21.8819 32.5574 22.7961 31.8039L38.9897 18.4567C39.3479 18.1614 39.7976 18 40.2618 18L45.2283 18C45.5359 18 45.8392 18.0709 46.1149 18.2072L56.8866 23.5342C57.5685 23.8715 58 24.5663 58 25.327L58 48.5415C58 50.4603 55.5601 51.2779 54.4039 49.7467L41.8233 33.0854Z" stroke="#5B1400" stroke-width="4"/>
<path d="M5 49V23" stroke="#5B1400" stroke-width="4" stroke-linecap="round"/>
<path d="M67.6667 49V23" stroke="#5B1400" stroke-width="4" stroke-linecap="round"/>
</svg>
