<svg width="73" height="73" viewBox="0 0 73 73" fill="none" xmlns="http://www.w3.org/2000/svg">
<path d="M3.21188 30.5927C2.42586 25.0916 3.77332 19.5905 8.15259 15.1302C12.2324 11.0044 18.1463 7.845 25.1456 9.40611C30.8349 10.6699 34.503 14.647 36.0002 16.6913C36.3371 17.1374 37.0108 17.1374 37.3477 16.6913C38.8823 14.6842 42.513 10.707 48.2023 9.40611C55.2017 7.845 61.1155 11.0044 65.1954 15.1302C76.2371 26.281 67.8903 43.9365 55.8005 52.0766C50.8224 55.4218 43.2616 60.737 39.7432 64.1566C38.7326 65.123 37.9091 66.015 37.3103 66.7212C36.9734 67.0929 36.412 67.0929 36.0751 66.7212C35.4762 66.015 34.6528 65.123 33.6422 64.1566C30.1238 60.7742 22.5256 55.459 17.5849 52.0766C13.3553 49.2145 10.2486 46.2781 7.59114 41.7806" stroke="#5B1400" stroke-width="4" stroke-miterlimit="10" stroke-linecap="round" stroke-linejoin="round"/>
<path d="M4.78363 36.3911H14.7025L17.6594 31.6334L21.6644 42.3754L26.3805 18.5498L31.8078 49.4004L38.5826 30.5183L42.625 42.4497L46.2182 36.3911H55.4634" stroke="#5B1400" stroke-width="4" stroke-miterlimit="10" stroke-linecap="round" stroke-linejoin="round"/>
</svg>
