<svg width="73" height="73" viewBox="0 0 73 73" fill="none" xmlns="http://www.w3.org/2000/svg">
<path d="M62 17L55.787 21.7337C55.4387 21.9991 55.0128 22.1429 54.5749 22.1429H39.6197C38.8577 22.1429 38.1618 22.5759 37.8253 23.2597L35.6959 27.5861C35.2877 28.4154 35.5011 29.4165 36.2119 30.0073L51.0827 42.3674C52.6312 43.6545 53.4308 45.6324 53.2119 47.634L51.9658 59.0266C51.9054 59.5788 51.7877 60.1232 51.6145 60.651L50.1875 65" stroke="#5B1400" stroke-width="4"/>
<path d="M5 31.4167L22.2397 28.4715C23.5925 28.2404 24.7708 29.4094 24.5506 30.764L22.1339 45.6262C21.8554 47.3392 22.7133 49.0364 24.2577 49.8279L32.8926 54.2533C34.1282 54.8866 34.7679 56.285 34.4389 57.634L31.6667 69" stroke="#5B1400" stroke-width="4"/>
<circle cx="36.5" cy="36.5" r="32.5" stroke="#5B1400" stroke-width="4"/>
</svg>
