<svg width="73" height="73" viewBox="0 0 73 73" fill="none" xmlns="http://www.w3.org/2000/svg">
<path d="M7 29.0862C7 27.1415 7 26.1691 7.33092 25.4069C7.73477 24.4768 8.47681 23.7348 9.40694 23.3309C10.1691 23 11.1415 23 13.0862 23V23C14.3289 23 14.9503 23 15.5061 22.8355C16.1852 22.6344 16.7987 22.2567 17.284 21.7408C17.6812 21.3186 17.961 20.7638 18.5205 19.6542L22.28 12.1989C22.8196 11.1289 23.0894 10.5938 23.5717 10.2969C24.0539 10 24.6532 10 25.8516 10H47.1484C48.3468 10 48.9461 10 49.4283 10.2969C49.9106 10.5938 50.1804 11.1289 50.72 12.1989L54.4795 19.6542C55.039 20.7638 55.3188 21.3186 55.716 21.7408C56.2013 22.2567 56.8148 22.6344 57.4939 22.8355C58.0497 23 58.6711 23 59.9138 23V23C61.8585 23 62.8309 23 63.5931 23.3309C64.5232 23.7348 65.2652 24.4768 65.6691 25.4069C66 26.1691 66 27.1415 66 29.0862V56C66 58.8284 66 60.2426 65.1213 61.1213C64.2426 62 62.8284 62 60 62H13C10.1716 62 8.75736 62 7.87868 61.1213C7 60.2426 7 58.8284 7 56V29.0862Z" stroke="#5B1400" stroke-width="4"/>
<circle cx="36" cy="40" r="11" stroke="#5B1400" stroke-width="4"/>
</svg>
