<svg width="74" height="73" viewBox="0 0 74 73" fill="none" xmlns="http://www.w3.org/2000/svg">
<ellipse cx="37" cy="37" rx="3" ry="2" fill="#5B1400"/>
<path d="M49 37C49 46.1856 47.4083 54.4069 44.9134 60.2571C43.6643 63.1859 42.2283 65.4277 40.7357 66.9081C39.2514 68.3802 37.8222 69 36.5 69C35.1778 69 33.7486 68.3802 32.2643 66.9081C30.7717 65.4277 29.3357 63.1859 28.0866 60.2571C25.5917 54.4069 24 46.1856 24 37C24 27.8144 25.5917 19.5931 28.0866 13.7429C29.3357 10.8141 30.7717 8.57228 32.2643 7.09193C33.7486 5.61984 35.1778 5 36.5 5C37.8222 5 39.2514 5.61984 40.7357 7.09193C42.2283 8.57228 43.6643 10.8141 44.9134 13.7429C47.4083 19.5931 49 27.8144 49 37Z" stroke="#5B1400" stroke-width="4"/>
<path d="M42.3955 46.9473C34.3622 51.5853 26.4155 54.4326 20.1122 55.3407C16.9546 55.7957 14.3146 55.7486 12.3202 55.2734C10.3315 54.7996 9.17048 53.9537 8.58752 52.9439C8.00455 51.9342 7.85247 50.5058 8.43647 48.5466C9.02214 46.5818 10.3014 44.272 12.2742 41.7649C16.2123 36.7602 22.6515 31.3017 30.6847 26.6637C38.718 22.0257 46.6648 19.1784 52.9681 18.2703C56.1256 17.8153 58.7656 17.8624 60.76 18.3376C62.7487 18.8114 63.9097 19.6574 64.4927 20.6671C65.0757 21.6768 65.2278 23.1052 64.6438 25.0644C64.0581 27.0292 62.7788 29.339 60.8061 31.8461C56.8679 36.8508 50.4287 42.3093 42.3955 46.9473Z" stroke="#5B1400" stroke-width="4"/>
<path d="M42.3955 26.6628C34.3622 22.0248 26.4155 19.1775 20.1122 18.2694C16.9546 17.8144 14.3146 17.8615 12.3202 18.3367C10.3315 18.8105 9.17048 19.6564 8.58752 20.6662C8.00455 21.6759 7.85247 23.1043 8.43647 25.0635C9.02214 27.0283 10.3014 29.3381 12.2742 31.8452C16.2123 36.8499 22.6515 42.3084 30.6847 46.9464C38.718 51.5844 46.6648 54.4317 52.9681 55.3398C56.1256 55.7948 58.7656 55.7477 60.76 55.2725C62.7487 54.7987 63.9097 53.9528 64.4927 52.943C65.0757 51.9333 65.2278 50.5049 64.6438 48.5457C64.0581 46.5809 62.7788 44.2711 60.8061 41.764C56.8679 36.7593 50.4287 31.3008 42.3955 26.6628Z" stroke="#5B1400" stroke-width="4"/>
</svg>
