<svg width="73" height="73" viewBox="0 0 73 73" fill="none" xmlns="http://www.w3.org/2000/svg">
<path fill-rule="evenodd" clip-rule="evenodd" d="M47.8585 42.3252C50.1129 42.3252 52.315 41.7214 54.1768 40.5926C56.0672 41.7193 58.2982 42.3099 60.5748 42.2865L67.8064 39.9497C69.8441 38.4578 71.243 36.3897 71.7691 34.0918C72.2951 31.7936 71.9161 29.4048 70.6958 27.325C69.4755 25.2452 67.4877 23.6007 65.0653 22.6668C64.5121 20.442 63.1189 18.4519 61.1167 17.0269L54.0576 14.8331H53.2629C51.6928 12.7987 49.3355 11.3476 46.6393 10.7555L31.5052 10C28.9894 10.1856 26.6172 11.1174 24.7704 12.6453C23.8977 12.4626 23.0044 12.3679 22.1079 12.363C19.9369 12.367 17.8136 12.9289 15.9943 13.9808C14.1751 15.0327 12.7376 16.5298 11.8554 18.2913L6.105 21.9085C4.67414 23.63 3.90385 25.7144 3.90765 27.854C3.89349 28.7488 4.02739 29.6404 4.30503 30.5006C2.79638 32.239 1.98514 34.3753 2.00021 36.57C1.99661 39.1153 3.09164 41.5652 5.06006 43.4157C5.21892 45.238 5.93601 46.9871 7.13375 48.4736C8.33149 49.96 9.96423 51.1275 11.8554 51.8492C14.0343 53.0622 15.8794 54.6937 17.2547 56.6233C18.6302 58.5531 19.501 60.7321 19.8031 63H34.6501V52.4138C34.6474 50.5342 35.2379 48.6916 36.3548 47.0948C37.4715 45.4982 39.0698 44.2113 40.9686 43.3803C42.0363 43.0176 42.299 42.5293 42.6208 41.931C42.8352 41.5323 43.0762 41.0846 43.5988 40.5926C44.053 40.8679 44.405 41.1122 44.7101 41.3239C45.6562 41.98 46.1538 42.3252 47.8585 42.3252ZM56.5066 37.4817C57.5434 38.0343 58.7388 38.367 59.9881 38.4324L65.929 36.5125C67.0138 35.5824 67.7027 34.4291 67.9753 33.2377C68.2816 31.9001 68.0704 30.4949 67.329 29.2314C66.5806 27.9559 65.3085 26.8639 63.6482 26.2238L61.7683 25.4991L61.288 23.5672C61.0066 22.4356 60.3315 21.3422 59.2817 20.4631L53.4589 18.6534H51.3346L50.1673 17.1411C49.2422 15.9424 47.8152 14.9968 46.0832 14.5531L31.575 13.8288C29.9189 13.9934 28.4133 14.6235 27.2711 15.5685L25.8181 16.7706L23.9621 16.382C23.3541 16.2547 22.7295 16.1878 22.1009 16.1834C20.6035 16.1886 19.1655 16.5786 17.9627 17.2741C16.7583 17.9704 15.8689 18.9249 15.3428 19.9755L14.8627 20.9343L8.78518 24.7573C8.12118 25.7163 7.79467 26.7827 7.79653 27.8361L7.79659 27.8693L7.79607 27.9026C7.78852 28.3795 7.85961 28.859 8.011 29.3282L8.66667 31.3593L7.26078 32.9795C6.33223 34.0494 5.88056 35.3016 5.88899 36.5329L5.88909 36.5484L5.88907 36.5641C5.88705 37.9994 6.50083 39.463 7.7446 40.6323L8.80883 41.6327L8.93469 43.0766C9.02559 44.1194 9.43803 45.1598 10.1795 46.08C10.9244 47.0045 11.9783 47.7758 13.2603 48.2651L13.523 48.3655L13.7685 48.5021C14.0528 48.6603 14.3328 48.8247 14.6083 48.995L14.5963 49.0038C19.8826 52.1816 22.1258 56.8063 22.8872 59.1711H24.0772V45.1981L19.793 41.4461L16.8851 44.3113C16.1258 45.0594 14.8946 45.0594 14.1353 44.3113C13.376 43.5632 13.376 42.3501 14.1353 41.602L17.6193 38.1691L16.574 32.5043L11.8375 30.1711C10.877 29.6979 10.4877 28.5471 10.968 27.6007C11.4482 26.6545 12.6163 26.2708 13.5768 26.744L18.1984 29.0209L23.8594 25.4715L22.0987 20.8451C21.7215 19.8544 22.2311 18.7502 23.2366 18.3785C24.2421 18.007 25.3629 18.509 25.7399 19.4996L27.632 24.4709H29.7252L30.7251 22.5005L29.1397 18.8557C28.7166 17.8833 29.174 16.757 30.161 16.3402C31.148 15.9234 32.2911 16.3739 32.7142 17.3464L34.0794 20.4849L39.5005 21.456L39.5229 21.4382L43.0266 18.6764C43.8652 18.0155 45.0888 18.1494 45.7597 18.9756C46.4305 19.8017 46.2946 21.0073 45.456 21.6683L43.1139 23.5145L45.7099 26.8032L46.7068 24.8391C47.036 24.19 47.7094 23.78 48.4459 23.78H52.6504C53.7243 23.78 54.5948 24.6377 54.5948 25.6958C54.5948 26.7539 53.7243 27.6116 52.6504 27.6116H49.6476L49.1263 28.6389L52.3716 29.3494C52.5267 29.3835 52.677 29.436 52.8194 29.5061L55.6223 30.887C56.5828 31.36 56.9721 32.5109 56.492 33.4573C56.0118 34.4037 54.8437 34.7872 53.8832 34.314L51.2943 33.0387L45.2211 31.7089C44.7795 31.6122 44.3857 31.3668 44.1081 31.015L39.6588 25.3788L34.2663 24.4128C34.1881 24.4762 34.1041 24.5341 34.0149 24.5858L32.8713 26.8388V27.9226H35.1316C35.4333 27.9226 35.731 27.9919 36.0011 28.1249L41.6071 30.8867C42.5677 31.3598 42.957 32.5105 42.4767 33.4569C41.9964 34.4033 40.8284 34.7868 39.868 34.3136L34.6725 31.7541H32.8713V34.6719C32.8713 35.7298 32.0008 36.5876 30.9269 36.5876C29.853 36.5876 28.9824 35.7298 28.9824 34.6719V29.8531V29.8383V29.8238V28.3025H26.5879L20.4601 32.1444L21.5078 37.8216L27.3135 42.9059C27.7285 43.2695 27.9661 43.7906 27.9661 44.3378V59.1711H30.7614V52.3394C30.7614 47.1634 33.696 43.9864 35.2988 42.4823C36.5807 41.279 38.5065 40.2646 39.3092 39.9079C39.4686 39.5562 40.0125 38.6433 40.9118 37.8051C41.8111 36.967 42.7448 36.0939 43.0993 35.7621C45.5063 37.1176 47.3755 38.4785 47.3755 38.4785C47.3755 38.4785 49.8667 38.3438 50.9986 37.895C51.9039 37.5358 53.4822 36.5378 54.1583 36.0838L56.5066 37.4817Z" fill="#5B1400"/>
</svg>
