<svg width="73" height="73" viewBox="0 0 73 73" fill="none" xmlns="http://www.w3.org/2000/svg">
<path d="M19.5556 12H53.4444C56.6972 12 58.9314 12.0044 60.6094 12.2349C62.2255 12.4568 63.0248 12.854 63.5857 13.4269C64.1523 14.0057 64.549 14.8396 64.769 16.5107C64.9959 18.235 65 20.5272 65 23.8462V53H8V23.8462C8 20.5272 8.00407 18.235 8.23104 16.5107C8.451 14.8396 8.84765 14.0057 9.4143 13.4269C9.97516 12.854 10.7745 12.4568 12.3906 12.2349C14.0686 12.0044 16.3028 12 19.5556 12Z" stroke="#5B1400" stroke-width="4"/>
<path d="M64.7407 53H8.25926C6.14303 53 4 54.5687 4 57C4 60.5359 7.15454 63 10.5185 63H62.4815C65.8455 63 69 60.5359 69 57C69 54.5687 66.857 53 64.7407 53Z" stroke="#5B1400" stroke-width="4"/>
</svg>
